<?xml version="1.0" standalone="no"?><svg xmlns="http://www.w3.org/2000/svg" viewBox="0 0 1440 320"><path fill="#ffffff" fill-opacity="1" d="M0,256L34.3,250.7C68.6,245,137,235,206,208C274.3,181,343,139,411,122.7C480,107,549,117,617,122.7C685.7,128,754,128,823,160C891.4,192,960,256,1029,256C1097.1,256,1166,192,1234,170.7C1302.9,149,1371,171,1406,181.3L1440,192L1440,0L1405.7,0C1371.4,0,1303,0,1234,0C1165.7,0,1097,0,1029,0C960,0,891,0,823,0C754.3,0,686,0,617,0C548.6,0,480,0,411,0C342.9,0,274,0,206,0C137.1,0,69,0,34,0L0,0Z"></path></svg>